<?xml version="1.0" encoding="UTF-8"?>
<svg xmlns="http://www.w3.org/2000/svg" version="1.1" viewBox="0 0 66.22 78.67">
  <defs>
    <style>
      .cls-1 {
        fill: #4d3029;
      }
    </style>
  </defs>
  <!-- Generator: Adobe Illustrator 28.6.0, SVG Export Plug-In . SVG Version: 1.2.0 Build 709)  -->
  <g>
    <g id="Layer_1">
      <g>
        <path class="cls-1" d="M33.31,31.23c-.76-1.57-1.43-3.29-1.37-5.06s1.07-2.93,2.39-3.92,2.84-1.74,3.81-3.06c1.16-1.58.93-3.55.64-5.37-.11-.67-.94-1.03-1.54-.87-.71.19-.98.87-.87,1.54.14.84.3,1.8.04,2.63-.24.79-.93,1.27-1.58,1.73-1.38.99-2.87,1.88-3.93,3.23-2.46,3.14-1.33,7.16.25,10.41.7,1.45,2.86.18,2.16-1.26h0Z"/>
        <path class="cls-1" d="M27.95,23.71c-.71-.12,1.7-2.87,1.96-3.18,1.15-1.36,1.81-2.8,1.93-4.6.23-3.59-1.13-7.15-2.75-10.28-.74-1.43-2.9-.17-2.16,1.26.89,1.73,1.64,3.52,2.08,5.42.41,1.79.72,4.04-.3,5.67-.88,1.41-2.28,2.41-2.98,3.94s-.46,3.85,1.56,4.19c1.57.26,2.25-2.15.66-2.41h0Z"/>
        <path class="cls-1" d="M31.24,46.46c6.6.09,13.66-.09,19.01-4.47l-2.09-1.22c-2.38,6.47-2.97,13.37-1.91,20.17.5,3.22.96,7.28-2.98,8.31-3.52.92-7.24,1.24-10.85,1.67-1.58.19-1.6,2.69,0,2.5,3.82-.45,7.78-.78,11.51-1.76,3.46-.91,5.19-3.78,5.19-7.26,0-1.97-.49-3.9-.7-5.85s-.26-3.78-.18-5.68c.16-3.92.98-7.76,2.33-11.43.47-1.29-1.23-1.92-2.09-1.22-4.75,3.9-11.42,3.82-17.24,3.74-1.61-.02-1.61,2.48,0,2.5h0Z"/>
        <path class="cls-1" d="M10.22,42.97c1.11,2.64,4.07,3.33,6.64,3.8,3.28.61,6.59.57,9.87-.04l-1.58-1.21c-.36,4.52-.58,9.05-.65,13.59-.07,4.03-.54,8.61.85,12.47.54,1.5,2.96.85,2.41-.66-.66-1.82-.74-3.7-.77-5.62-.03-2.23-.02-4.45.02-6.68.08-4.37.3-8.74.64-13.09.07-.87-.85-1.34-1.58-1.21-2.51.47-5.1.55-7.63.19-1.22-.17-2.44-.44-3.61-.81-.76-.24-1.86-.58-2.2-1.4-.61-1.46-3.03-.82-2.41.66h0Z"/>
        <path class="cls-1" d="M11.85,60.98c-.09,3.68.51,7.37,1.77,10.82.23.63.85,1.06,1.54.87.61-.17,1.11-.9.87-1.54-1.19-3.26-1.76-6.68-1.68-10.16.04-1.61-2.46-1.61-2.5,0h0Z"/>
        <path class="cls-1" d="M51.09,49.18c.28-1.37,1.86-2.97,3.2-3.37,1.71-.51,2.08,1.52,1.82,2.75-.37,1.76-1.41,3.44-2.26,5s-1.69,3.02-2.43,4.58c-1.13,2.38-2.46,5.7-.46,8.02s6.09,1.22,6.61-1.88c.26-1.57-2.15-2.25-2.41-.66s-2.24,1.86-2.65.21c-.32-1.28.32-2.75.83-3.9,1.43-3.2,3.46-6.11,4.75-9.38,1.04-2.63.79-6.71-2.69-7.27-2.81-.45-6.18,2.6-6.71,5.25-.32,1.57,2.09,2.24,2.41.66h0Z"/>
        <ellipse class="cls-1" cx="29.51" cy="38.69" rx="18.87" ry="3.95"/>
        <path class="cls-1" d="M26.39,31.23c-1.21-1.53-2.33-3.71-2.26-5.71.04-1.11.5-2.19.65-3.29.16-1.21.11-2.38-.11-3.58-.12-.67-.93-1.04-1.54-.87-.7.19-.99.87-.87,1.54.2,1.11.16,2.26-.09,3.36-.29,1.29-.65,2.5-.48,3.84.3,2.4,1.46,4.62,2.94,6.49.42.53,1.33.44,1.77,0,.52-.52.42-1.24,0-1.77h0Z"/>
      </g>
    </g>
  </g>
</svg>