<?xml version="1.0" encoding="UTF-8"?>
<svg xmlns="http://www.w3.org/2000/svg" version="1.1" viewBox="0 0 80 79.56">
  <defs>
    <style>
      .cls-1 {
        fill: #fff;
      }

      .cls-2 {
        fill: #4d3029;
      }
    </style>
  </defs>
  <!-- Generator: Adobe Illustrator 28.6.0, SVG Export Plug-In . SVG Version: 1.2.0 Build 709)  -->
  <g>
    <g id="Layer_1">
      <circle class="cls-1" cx="39.78" cy="41.1" r="37.33"/>
      <g>
        <path class="cls-2" d="M41.77,31.57c-.67-1.37-1.25-2.88-1.2-4.43.05-1.47.92-2.52,2.05-3.37s2.57-1.57,3.44-2.77c1.05-1.44.85-3.23.58-4.88-.11-.67-.94-1.04-1.54-.87-.71.2-.98.87-.87,1.54.12.72.27,1.56.04,2.27-.21.67-.79,1.06-1.34,1.45-1.24.88-2.57,1.69-3.52,2.89-2.24,2.84-1.23,6.48.2,9.43.7,1.45,2.86.18,2.16-1.26h0Z"/>
        <path class="cls-2" d="M36.92,24.82c-.17-.03-.04,0-.03.06-.02-.1.05-.27.09-.36.1-.29.29-.57.47-.81.38-.53.86-.99,1.28-1.48,1.05-1.24,1.65-2.55,1.75-4.19.2-3.22-1.02-6.41-2.47-9.22-.74-1.43-2.9-.17-2.16,1.26.79,1.53,1.45,3.11,1.84,4.79.35,1.55.63,3.52-.25,4.94-.78,1.25-2.03,2.14-2.65,3.51-.67,1.45-.42,3.61,1.47,3.93,1.57.26,2.25-2.15.66-2.41h0Z"/>
        <path class="cls-2" d="M39.8,45.33c5.92.08,12.21-.1,17.01-4.02l-2.09-1.22c-2.13,5.81-2.64,11.98-1.69,18.08.41,2.63.86,6.21-2.38,7.11s-6.55,1.15-9.8,1.53c-1.58.19-1.6,2.69,0,2.5,3.51-.42,7.26-.64,10.65-1.67,2.79-.84,4.21-3.27,4.34-6.09.07-1.69-.32-3.36-.54-5.02-.23-1.77-.3-3.55-.25-5.33.12-3.58.85-7.08,2.08-10.44.47-1.29-1.23-1.92-2.09-1.22-4.2,3.44-10.1,3.36-15.24,3.29-1.61-.02-1.61,2.48,0,2.5h0Z"/>
        <path class="cls-2" d="M21.1,42.42c.99,2.28,4.01,2.87,6.19,3.24,2.85.48,5.7.43,8.54-.09l-1.58-1.21c-.31,3.98-.51,7.97-.58,11.97-.06,3.64-.48,7.76.76,11.25.54,1.51,2.95.86,2.41-.66-.63-1.77-.67-3.59-.69-5.45s0-3.75.03-5.62c.07-3.83.27-7.66.57-11.48.07-.87-.85-1.34-1.58-1.21-2.22.41-4.51.48-6.75.16-1.58-.22-4.44-.5-5.16-2.16-.64-1.47-2.79-.2-2.16,1.26h0Z"/>
        <path class="cls-2" d="M22.42,58.11c-.08,3.28.46,6.58,1.58,9.66.23.63.85,1.06,1.54.87.61-.17,1.11-.9.87-1.54-1.06-2.89-1.56-5.92-1.49-9,.02-.68-.59-1.25-1.25-1.25s-1.23.57-1.25,1.25h0Z"/>
        <path class="cls-2" d="M57.6,47.65c.24-1.17,1.6-2.55,2.75-2.91,1.4-.43,1.66,1.29,1.45,2.27-.33,1.55-1.24,3.04-1.99,4.42s-1.5,2.68-2.16,4.07c-1.03,2.18-2.22,5.18-.39,7.3s5.63,1.13,6.11-1.74c.26-1.57-2.15-2.25-2.41-.66-.21,1.27-1.76,1.53-2.09.19-.27-1.1.29-2.38.73-3.36,1.28-2.86,3.09-5.46,4.24-8.38.96-2.42.67-6.13-2.51-6.64-2.56-.41-5.63,2.35-6.12,4.77-.32,1.57,2.09,2.24,2.41.66h0Z"/>
        <ellipse class="cls-2" cx="38.27" cy="38.28" rx="16.79" ry="3.51"/>
        <path class="cls-2" d="M35.59,31.54c-1.05-1.33-2.03-3.24-1.97-4.99.03-.98.44-1.94.57-2.91.15-1.09.09-2.15-.1-3.24-.12-.67-.93-1.04-1.54-.87-.7.19-.99.87-.87,1.54.17.96.14,1.96-.08,2.91-.27,1.16-.58,2.26-.43,3.47.27,2.17,1.31,4.16,2.65,5.86.42.53,1.33.44,1.77,0,.52-.52.42-1.24,0-1.77h0Z"/>
      </g>
    </g>
  </g>
</svg>